{"title":"Geordie Shore Big Birthday Battle S01E01 1080P WEB-DL AAC2 0 H 2","uid":14608489,"size":1576973983,"categoryP":"video","categoryS":"hd___tv_shows","magnet":"?xt=urn:btih:fb14060c20e11bff6956e7123f8c783fa2158ad5&amp;dn=Geordie+Shore+Big+Birthday+Battle+S01E01+1080P+WEB-DL+AAC2+0+H+2&amp;tr=udp%3A%2F%2Ftracker.leechers-paradise.org%3A6969&amp;tr=udp%3A%2F%2Fzer0day.ch%3A1337&amp;tr=udp%3A%2F%2Fopen.demonii.com%3A1337&amp;tr=udp%3A%2F%2Ftracker.coppersurfer.tk%3A6969&amp;tr=udp%3A%2F%2Fexodus.desync.com%3A6969","seeders":8,"leechers":1,"uploader":"jmanwf","files":1,"time":1463114112,"description":"Description\r\nThe Geordies are back for a 5-year birthday battle! There's tears as a familiar face returns and Anna surprises the gang with their biggest challenge yet. But who will end up wearing the crown...\r\n\r\n\r\n\r\nVideo\r\nID : 2\r\nFormat : AVC\r\nFormat/Info : Advanced Video Codec\r\nFormat profile :   \r\nFormat settings, CABAC : Yes\r\nFormat settings, ReFrames : 4 frames\r\nCodec ID : avc1\r\nCodec ID/Info : Advanced Video Coding\r\nDuration : 41mn 44s\r\nBit rate : 4 907 Kbps\r\nWidth : 1 920 pixels\r\nHeight : 1 080 pixels\r\nDisplay aspect ratio : 16:9\r\nFrame rate mode : Constant\r\nFrame rate : 25.000 fps\r\nColor space : YUV\r\nChroma subsampling : 4:2:0\r\nBit depth : 8 bits\r\nScan type : Progressive\r\nBits/(Pixel*Frame) : 0.095\r\nStream size : 1.43 GiB (97%)\r\nLanguage : English\r\nEncoded date : UTC 2016-05-12 11:13:23\r\nTagged date : UTC 2016-05-12 11:16:14\r\nColor range : Limited\r\nColor primaries : BT.709\r\nTransfer characteristics : BT.709\r\nMatrix coefficients : BT.709\r\n\r\nAudio\r\nID : 1\r\nFormat : AAC\r\nFormat/Info : Advanced Audio Codec\r\nFormat profile : LC\r\nCodec ID : 40\r\nDuration : 41mn 44s\r\nBit rate mode : Variable\r\nBit rate : 126 Kbps\r\nMaximum bit rate : 197 Kbps\r\nChannel(s) : 2 channels\r\nChannel positions : Front: L R\r\nSampling rate : 48.0 KHz\r\nFrame rate : 46.875 fps (1024 spf)\r\nCompression mode : Lossy\r\nStream size : 37.6 MiB (3%)\r\nLanguage : English\r\nDefault : Yes\r\nAlternate group : 1\r\nEncoded date : UTC 2016-05-12 11:13:23\r\nTagged date : UTC 2016-05-12 11:16:14","torrent":{"xt":"urn:btih:fb14060c20e11bff6956e7123f8c783fa2158ad5","amp;dn":"Geordie+Shore+Big+Birthday+Battle+S01E01+1080P+WEB-DL+AAC2+0+H+2","amp;tr":["udp%3A%2F%2Ftracker.leechers-paradise.org%3A6969","udp%3A%2F%2Fzer0day.ch%3A1337","udp%3A%2F%2Fopen.demonii.com%3A1337","udp%3A%2F%2Ftracker.coppersurfer.tk%3A6969","udp%3A%2F%2Fexodus.desync.com%3A6969"],"infoHash":"fb14060c20e11bff6956e7123f8c783fa2158ad5","infoHashBuffer":{"type":"Buffer","data":[251,20,6,12,32,225,27,255,105,86,231,18,63,140,120,63,162,21,138,213]},"announce":[],"urlList":[]}}